<svg width="44" height="52" viewBox="0 0 44 52" fill="none" xmlns="http://www.w3.org/2000/svg">
<path d="M21.9814 0C21.9251 0.00473099 21.8693 0.0108943 21.8142 0.0184659C21.435 0.0392571 21.0812 0.123907 20.8108 0.258523L2.97297 9.17756C2.66233 9.33499 2.48815 9.54728 2.48815 9.76847C2.48815 9.98965 2.66233 10.2019 2.97297 10.3594L3.56757 10.6548V21.4759L0.817568 26.9787C0.726781 27.1639 0.677476 27.3724 0.674128 27.5852C0.670779 27.798 0.713493 28.0085 0.798393 28.1974C0.883292 28.3863 1.00769 28.5478 1.1603 28.6671C1.31291 28.7864 1.4889 28.8598 1.6723 28.8807C1.70944 28.8828 1.74665 28.8828 1.78378 28.8807H7.72973C7.9227 28.8807 8.11232 28.8224 8.27978 28.7117C8.44724 28.6009 8.58672 28.4415 8.68438 28.2493C8.78204 28.057 8.83448 27.8386 8.83651 27.6157C8.83854 27.3928 8.79008 27.1732 8.69595 26.9787L5.94595 21.4759V11.8366L10.1081 13.9233C10.1081 13.9294 10.1081 13.9356 10.1081 13.9417V24.061C10.1081 27.9624 12.1831 31.376 15.3294 33.4048C12.1224 33.8222 9.22829 34.535 6.83784 35.4915C4.858 36.2836 3.21698 37.2457 2.00676 38.3906C0.796533 39.5354 0 40.9386 0 42.4901V50.8182C0.00207378 51.1323 0.128274 51.4329 0.351063 51.6543C0.573851 51.8757 0.875142 52 1.18919 52H42.8108C43.1249 52 43.4261 51.8757 43.6489 51.6543C43.8717 51.4329 43.9979 51.1323 44 50.8182V42.4901C44 40.9386 43.2035 39.5354 41.9932 38.3906C40.783 37.2457 39.142 36.2836 37.1622 35.4915C34.7717 34.535 31.8776 33.8222 28.6706 33.4048C31.8169 31.376 33.8919 27.9624 33.8919 24.0611V13.9418C33.8919 13.9356 33.8919 13.9295 33.8919 13.9233L41.027 10.3594C41.3377 10.202 41.5119 9.98969 41.5119 9.7685C41.5119 9.54731 41.3377 9.33502 41.027 9.17759L23.1892 0.258523C23.0329 0.177105 22.8454 0.112255 22.6379 0.0678406C22.4304 0.0234263 22.2071 0.00035704 21.9814 0ZM22 2.03125L37.4595 9.76847L22 17.5057L8.9375 10.9687H22C22.3158 10.9687 22.6186 10.8432 22.8419 10.6199C23.0652 10.3965 23.1907 10.0936 23.1907 9.7777C23.1907 9.46181 23.0652 9.15884 22.8419 8.93548C22.6186 8.71211 22.3158 8.58665 22 8.58665H8.90034L22 2.03125ZM12.4865 15.1236L20.8108 19.2784C21.1262 19.4361 21.554 19.5247 22 19.5247C22.446 19.5247 22.8738 19.4361 23.1892 19.2784L31.5135 15.1236V24.0611C31.5135 28.9647 27.304 32.9801 22 32.9801C16.696 32.9801 12.4865 28.9647 12.4865 24.0611V15.1236ZM4.75676 24.2273L5.81588 26.3324H3.69764L4.75676 24.2273ZM22 35.3622C24.6686 35.3622 27.2035 35.5653 29.5253 35.9347L22 47.9929L14.4747 35.9347C16.7965 35.5653 19.3314 35.3622 22 35.3622ZM11.9848 36.4148C12.0113 36.4726 12.0423 36.5281 12.0777 36.5809L20.2348 49.6364H2.37838V42.4901C2.37838 41.7421 2.74595 40.9555 3.64189 40.108C4.53784 39.2604 5.94355 38.4035 7.72973 37.6889C8.97368 37.1912 10.4162 36.7704 11.9848 36.4148ZM32.0338 36.4148C33.5953 36.7697 35.031 37.1931 36.2703 37.6889C38.0564 38.4035 39.4622 39.2604 40.3581 40.108C41.2541 40.9555 41.6216 41.7421 41.6216 42.4901V49.6364H23.7652L31.9223 36.5809C31.9641 36.5288 32.0014 36.4732 32.0338 36.4148Z" fill="#2DADFF"/>
</svg>
