<svg width="241" height="225" viewBox="0 0 241 225" fill="none" xmlns="http://www.w3.org/2000/svg">
<g filter="url(#filter0_d_1_1127)">
<rect x="70" y="45" width="100.896" height="84.9773" rx="10" fill="white"/>
</g>
<g clip-path="url(#clip0_1_1127)">
<path d="M98.269 88.7068H95.2465C94.7264 88.7076 94.2798 89.0185 94.181 89.4485L89.4189 110.034C89.2953 110.571 89.464 111.127 89.8787 111.549C90.2933 111.971 90.9104 112.215 91.5608 112.213H115.013C115.013 113.22 117.448 114.044 120.449 114.044C123.45 114.044 125.885 113.22 125.885 112.213H149.337C149.987 112.215 150.604 111.971 151.019 111.549C151.433 111.127 151.602 110.571 151.479 110.034L146.716 89.4485C146.618 89.0185 146.171 88.7076 145.651 88.7068H98.269Z" fill="#E64C3C"/>
<path d="M120.449 91.371V108.55C118.858 107.968 117.2 107.526 115.502 107.231C109.045 106.049 102.332 106.336 96.0511 108.064C95.69 108.157 95.2978 108.087 95.0128 107.878C94.7278 107.67 94.5902 107.353 94.6485 107.039L98.269 88.7063L98.5735 87.1588C98.6514 86.766 99.0195 86.4596 99.4867 86.3987C100.226 86.3072 100.987 86.2156 101.748 86.1423C103.077 88.3175 105.737 89.6851 108.641 89.6861C108.837 89.6861 109.022 89.6769 109.207 89.6678C109.931 89.6202 110.644 89.4909 111.327 89.2832C111.329 89.3027 111.336 89.3214 111.349 89.3381C112.162 91.2572 114.322 92.5371 116.741 92.5339C118.104 92.5377 119.421 92.1245 120.449 91.371V91.371Z" fill="#F5EFCA"/>
<path d="M144.846 108.064C138.566 106.337 131.852 106.049 125.396 107.231C123.697 107.526 122.039 107.968 120.449 108.55V91.3711C120.677 91.2137 120.888 91.039 121.079 90.8492C122.166 91.2131 123.324 91.3995 124.493 91.3986H124.558C124.615 92.0534 124.911 92.6773 125.407 93.1842C126.462 94.0628 127.781 94.6832 129.223 94.979C130.269 95.2603 131.202 95.7801 131.919 96.4807C132.558 97.1476 133.641 97.3821 134.583 97.0576C135.412 96.756 135.95 96.0692 135.953 95.3086C135.954 95.1097 135.917 94.9118 135.844 94.7226C135.735 94.4387 135.616 94.1549 135.474 93.8801C135.202 93.3128 134.844 92.7773 134.409 92.2868C136.565 91.3046 138.08 89.5548 138.53 87.5252C138.562 87.4885 138.606 87.4519 138.638 87.4153C139.01 87.0466 139.315 86.633 139.541 86.1882C140.171 86.2523 140.791 86.3164 141.411 86.3988C141.878 86.4598 142.246 86.7661 142.324 87.1589L142.628 88.7064L146.249 107.039C146.307 107.353 146.17 107.67 145.885 107.879C145.6 108.087 145.207 108.157 144.846 108.064V108.064Z" fill="#F9EAB0"/>
<path d="M125.885 112.212C125.885 113.219 123.449 114.044 120.449 114.044C117.448 114.044 115.013 113.219 115.013 112.212L115.502 107.231C117.2 107.526 118.858 107.967 120.449 108.549C122.039 107.967 123.697 107.526 125.396 107.231L125.885 112.212Z" fill="#C03A2B"/>
<path d="M140.019 84.2741C140.018 84.933 139.855 85.5846 139.541 86.1879C139.315 86.6327 139.01 87.0463 138.638 87.4149C138.606 87.4515 138.562 87.4882 138.53 87.5248C138.079 89.5544 136.565 91.3043 134.409 92.2865C134.844 92.7769 135.202 93.3124 135.474 93.8798C135.616 94.1545 135.735 94.4384 135.844 94.7222C135.917 94.9114 135.954 95.1093 135.953 95.3083C135.95 96.0689 135.412 96.7557 134.583 97.0573C133.641 97.3817 132.558 97.1472 131.919 96.4804C131.202 95.7797 130.269 95.2599 129.223 94.9786C127.781 94.6829 126.462 94.0625 125.407 93.1839C124.911 92.6769 124.615 92.053 124.558 91.3982H124.493C123.324 91.3992 122.166 91.2127 121.079 90.8488C120.888 91.0386 120.677 91.2133 120.449 91.3708C119.421 92.1242 118.104 92.5375 116.741 92.5337C114.322 92.5369 112.162 91.2569 111.349 89.3379C111.336 89.3212 111.329 89.3024 111.327 89.283C110.644 89.4906 109.931 89.62 109.207 89.6675C109.022 89.6767 108.837 89.6859 108.641 89.6859C105.703 89.6841 103.017 88.2861 101.701 86.0732C100.385 83.8604 100.664 81.2116 102.422 79.2285C102.291 78.9295 102.225 78.6132 102.227 78.2945C102.22 76.9413 103.349 75.7723 104.923 75.5016C104.929 75.4966 104.936 75.4934 104.945 75.4925C104.934 75.3826 104.923 75.2727 104.923 75.1537C104.921 74.6458 105.047 74.1434 105.293 73.6794C105.986 72.3281 107.567 71.4535 109.315 71.4542C109.975 71.4516 110.626 71.5769 111.218 71.8205C112.376 70.1792 114.475 69.1734 116.741 69.1741C118.296 69.1694 119.799 69.6487 120.96 70.5202C121.626 69.6147 122.839 69.0998 124.099 69.1867C125.36 69.2735 126.457 69.9476 126.94 70.9323C127.25 70.9031 127.562 70.8878 127.875 70.8865C132.087 70.8923 135.593 73.6141 135.942 77.1499H135.975C136.87 77.1499 137.729 77.4502 138.362 77.9845C138.994 78.5189 139.348 79.2433 139.345 79.9977C139.343 80.4911 139.193 80.976 138.91 81.4079C139.632 82.2399 140.02 83.2437 140.019 84.2741V84.2741Z" fill="#FB7B76"/>
<path d="M120.449 63.6802C119.848 63.6802 119.362 63.2702 119.362 62.7645V61.8488C119.362 61.3431 119.848 60.9331 120.449 60.9331C121.049 60.9331 121.536 61.3431 121.536 61.8488V62.7645C121.536 63.2702 121.049 63.6802 120.449 63.6802Z" fill="#F0C419"/>
<path d="M137.972 69.9832C137.532 69.9832 137.136 69.7601 136.968 69.4179C136.799 69.0758 136.892 68.682 137.203 68.4201L138.29 67.5044C138.563 67.2664 138.968 67.1709 139.348 67.2547C139.728 67.3385 140.025 67.5885 140.124 67.9087C140.224 68.2289 140.11 68.5693 139.828 68.7992L138.74 69.7149C138.537 69.8867 138.26 69.9832 137.972 69.9832V69.9832Z" fill="#F0C419"/>
<path d="M102.926 69.9832C102.637 69.9832 102.361 69.8867 102.157 69.7149L101.07 68.7992C100.787 68.5693 100.674 68.2289 100.773 67.9087C100.873 67.5885 101.17 67.3385 101.55 67.2547C101.93 67.1709 102.334 67.2664 102.607 67.5044L103.694 68.4201C104.005 68.682 104.098 69.0758 103.93 69.4179C103.762 69.7601 103.365 69.9832 102.926 69.9832Z" fill="#F0C419"/>
<path d="M111.295 66.1293C110.856 66.1294 110.459 65.9064 110.291 65.5643L109.042 63.026C108.884 62.7223 108.933 62.37 109.17 62.1053C109.408 61.8405 109.796 61.7046 110.187 61.7501C110.577 61.7956 110.908 62.0154 111.051 62.3246L112.3 64.8629C112.411 65.0874 112.411 65.3398 112.301 65.5645C112.19 65.7892 111.978 65.9677 111.712 66.0606C111.579 66.106 111.438 66.1294 111.295 66.1293V66.1293Z" fill="#F0C419"/>
<path d="M129.602 66.1293C129.459 66.1291 129.318 66.1054 129.186 66.0597C128.919 65.9668 128.708 65.7884 128.597 65.564C128.487 65.3395 128.487 65.0873 128.598 64.8629L129.847 62.3246C129.99 62.0154 130.32 61.7956 130.711 61.7501C131.101 61.7046 131.49 61.8405 131.727 62.1053C131.965 62.37 132.014 62.7223 131.855 63.026L130.607 65.5643C130.438 65.9064 130.042 66.1294 129.602 66.1293V66.1293Z" fill="#F0C419"/>
<path d="M142.547 77.033C142.027 77.0343 141.579 76.7255 141.477 76.296C141.376 75.8665 141.65 75.4367 142.13 75.2703L145.144 74.2191C145.503 74.0939 145.914 74.1396 146.222 74.3388C146.53 74.538 146.689 74.8605 146.638 75.1849C146.587 75.5092 146.335 75.7861 145.976 75.9113L142.963 76.9625C142.831 77.0088 142.69 77.0328 142.547 77.033Z" fill="#F0C419"/>
<path d="M98.3506 77.033C98.2076 77.0328 98.0661 77.0088 97.9342 76.9625L94.9214 75.9113C94.5625 75.7861 94.3101 75.5092 94.2593 75.1849C94.2085 74.8605 94.3671 74.538 94.6752 74.3388C94.9833 74.1396 95.3942 74.0939 95.7532 74.2191L98.767 75.2703C99.2479 75.4367 99.5217 75.8665 99.4202 76.296C99.3188 76.7255 98.8705 77.0343 98.3506 77.033V77.033Z" fill="#F0C419"/>
<path d="M138.638 87.4153C138.606 87.4519 138.562 87.4885 138.53 87.5251C138.338 88.407 137.939 89.2477 137.355 89.9975C136.786 90.1336 136.197 90.2014 135.605 90.199C134.527 90.1964 133.466 89.9799 132.506 89.5672C132.052 89.3624 131.625 89.1168 131.234 88.8346C130.801 88.976 130.34 89.0505 129.875 89.0544C128.439 89.0606 127.124 88.3788 126.483 87.2962C126.308 87.0034 126.332 86.6543 126.546 86.3804C126.759 86.1065 127.13 85.9494 127.519 85.9684C127.907 85.9873 128.254 86.1793 128.429 86.4721C128.644 86.8193 129.024 87.0728 129.475 87.169C129.925 87.2652 130.403 87.1949 130.788 86.9757C131.223 86.7257 131.484 86.3111 131.484 85.8677C131.486 85.6554 131.43 85.4456 131.321 85.2542C131.102 84.8114 131.326 84.3014 131.834 84.085C132.342 83.8686 132.963 84.0191 133.256 84.4301C133.521 84.8766 133.659 85.3687 133.659 85.8677C133.65 86.5075 133.411 87.1301 132.974 87.6533C133.148 87.7541 133.322 87.8548 133.496 87.9372C134.148 88.22 134.871 88.3676 135.605 88.3676C136.72 88.3728 137.799 88.034 138.638 87.4153V87.4153Z" fill="#2DADFF"/>
<path d="M125.341 83.8201C126.75 83.0028 127.718 81.7504 128.037 80.335C128.118 80.0109 127.984 79.6753 127.689 79.4573C127.393 79.2392 126.98 79.1727 126.61 79.2833C126.239 79.3939 125.968 79.6644 125.901 79.9907C125.688 80.9351 125.041 81.7706 124.101 82.3156C122.292 83.3417 119.866 83.1088 118.378 81.7662C117.973 81.392 117.284 81.3651 116.84 81.7062C116.395 82.0474 116.363 82.6273 116.768 83.0015C117.691 83.8592 118.91 84.4511 120.253 84.6937C119.644 85.4148 118.657 85.8422 117.607 85.8402C117.006 85.8402 116.519 86.2502 116.519 86.7559C116.519 87.2616 117.006 87.6716 117.607 87.6716C119.857 87.6792 121.877 86.5084 122.672 84.7349C123.631 84.6007 124.543 84.2882 125.341 83.8201V83.8201Z" fill="#2DADFF"/>
<path d="M135.474 93.8807C134.675 94.2242 133.817 94.459 132.93 94.5766C132.873 94.5842 132.815 94.5873 132.756 94.5858C132.184 94.5902 131.705 94.2199 131.662 93.7389C131.619 93.258 132.026 92.8314 132.593 92.7635C133.224 92.6832 133.836 92.5226 134.409 92.2874C134.844 92.7778 135.202 93.3133 135.474 93.8807V93.8807Z" fill="#2DADFF"/>
<path d="M111.251 87.4886C111.196 87.7455 111.167 88.0059 111.164 88.2669C111.162 88.6105 111.216 88.9526 111.327 89.2833C110.644 89.491 109.931 89.6203 109.207 89.6679C109.068 89.2193 108.995 88.758 108.989 88.2944C107.074 88.1184 105.622 86.7577 105.619 85.1352C105.615 84.6252 106.101 84.2082 106.706 84.2012C106.993 84.1997 107.269 84.2945 107.473 84.4645C107.677 84.6346 107.792 84.866 107.793 85.1077V85.1352C107.81 85.8588 108.49 86.4476 109.348 86.4813C109.498 86.0683 109.706 85.6717 109.968 85.3C110.114 85.0901 110.354 84.9386 110.635 84.88C110.915 84.8214 111.212 84.8606 111.457 84.9887C111.969 85.2548 112.133 85.8166 111.827 86.2524C111.551 86.633 111.356 87.0514 111.251 87.4886V87.4886Z" fill="#2DADFF"/>
<path d="M127.418 92.8454C126.765 93.0214 126.09 93.1351 125.407 93.1842C124.911 92.6773 124.615 92.0534 124.559 91.3986C124.664 91.4003 124.769 91.3972 124.874 91.3895C125.519 91.355 126.158 91.2566 126.776 91.0964C127.151 90.9881 127.567 91.0603 127.86 91.2847C128.154 91.5092 128.279 91.8504 128.187 92.1752C128.095 92.4999 127.8 92.7568 127.418 92.8454V92.8454Z" fill="#2DADFF"/>
<path d="M118.057 76.5002C118.057 75.9944 117.57 75.5845 116.97 75.5845C114.209 75.587 111.971 77.4714 111.968 79.7967C111.968 80.3024 112.455 80.7124 113.056 80.7124C113.656 80.7124 114.143 80.3024 114.143 79.7967C114.143 79.1653 114.441 78.5597 114.971 78.1132C115.501 77.6667 116.22 77.4159 116.97 77.4159C117.57 77.4159 118.057 77.0059 118.057 76.5002V76.5002Z" fill="#2DADFF"/>
<path d="M103.866 81.6492C103.669 81.6494 103.475 81.6038 103.306 81.5174C102.41 81.0617 101.731 80.3556 101.389 79.522C101.224 79.1258 101.14 78.7087 101.14 78.2886C101.14 76.2133 103.134 74.5293 105.598 74.5232C107.01 74.5187 108.339 75.0834 109.174 76.0424C109.406 76.3051 109.453 76.6519 109.299 76.9523C109.145 77.2526 108.812 77.4608 108.426 77.4985C108.04 77.5361 107.66 77.3975 107.428 77.1348C107.002 76.6451 106.323 76.3565 105.602 76.3583C104.573 76.3632 103.674 76.9438 103.4 77.7795C103.127 78.6151 103.547 79.5018 104.428 79.9497C104.847 80.1618 105.047 80.5834 104.915 80.98C104.784 81.3767 104.355 81.6508 103.866 81.6501V81.6492Z" fill="#2DADFF"/>
<path d="M127.197 72.9392C126.597 72.9392 126.11 72.5292 126.11 72.0235C126.11 70.9597 125.086 70.0973 123.823 70.0973C122.56 70.0973 121.536 70.9597 121.536 72.0235C121.536 72.5292 121.049 72.9392 120.449 72.9392C119.848 72.9392 119.362 72.5292 119.362 72.0235C119.362 69.9482 121.359 68.2659 123.823 68.2659C126.287 68.2659 128.284 69.9482 128.284 72.0235C128.284 72.2663 128.17 72.4992 127.966 72.671C127.762 72.8427 127.486 72.9392 127.197 72.9392V72.9392Z" fill="#2DADFF"/>
<path d="M137.396 83.4974C136.891 83.4932 136.456 83.197 136.345 82.7821C136.235 82.3672 136.478 81.9428 136.932 81.7576C137.366 81.5861 137.725 81.3059 137.962 80.9554C138.515 80.1615 138.323 79.1488 137.503 78.54C136.683 77.9311 135.466 77.8969 134.6 78.4583C134.12 78.7617 133.438 78.6797 133.078 78.2751C132.718 77.8706 132.815 77.2966 133.296 76.9932C134.056 76.508 134.983 76.2433 135.938 76.2386C138.038 76.2266 139.865 77.4482 140.328 79.1739C140.79 80.8997 139.764 82.6639 137.861 83.4131C137.715 83.4702 137.556 83.499 137.396 83.4974V83.4974Z" fill="#2DADFF"/>
</g>
<defs>
<filter id="filter0_d_1_1127" x="3.8147e-06" y="0" width="240.896" height="224.977" filterUnits="userSpaceOnUse" color-interpolation-filters="sRGB">
<feFlood flood-opacity="0" result="BackgroundImageFix"/>
<feColorMatrix in="SourceAlpha" type="matrix" values="0 0 0 0 0 0 0 0 0 0 0 0 0 0 0 0 0 0 127 0" result="hardAlpha"/>
<feOffset dy="25"/>
<feGaussianBlur stdDeviation="35"/>
<feColorMatrix type="matrix" values="0 0 0 0 0.0392157 0 0 0 0 0.0117647 0 0 0 0 0.235294 0 0 0 0.15 0"/>
<feBlend mode="normal" in2="BackgroundImageFix" result="effect1_dropShadow_1_1127"/>
<feBlend mode="normal" in="SourceGraphic" in2="effect1_dropShadow_1_1127" result="shape"/>
</filter>
<clipPath id="clip0_1_1127">
<rect width="63.0599" height="53.1108" fill="white" transform="translate(88.9187 60.9331)"/>
</clipPath>
</defs>
</svg>
