<svg width="241" height="225" viewBox="0 0 241 225" fill="none" xmlns="http://www.w3.org/2000/svg">
<g filter="url(#filter0_d_1_1154)">
<rect x="70" y="45" width="100.896" height="84.9773" rx="10" fill="white"/>
</g>
<g clip-path="url(#clip0_1_1154)">
<path d="M146.256 114.044H127.57C124.759 114.044 122.479 112.124 122.479 109.756V94.0185C122.479 91.6503 124.759 89.7305 127.57 89.7305H146.256C149.068 89.7305 151.347 91.6503 151.347 94.0185V109.756C151.347 112.124 149.068 114.044 146.256 114.044Z" fill="#BDF4E3"/>
<path d="M144.6 110.256H129.227C127.985 110.256 126.978 109.408 126.978 108.362V95.4143C126.978 94.3683 127.985 93.5203 129.227 93.5203H144.6C145.842 93.5203 146.848 94.3683 146.848 95.4143V108.362C146.848 109.408 145.842 110.256 144.6 110.256Z" fill="#FFDCB6"/>
<path d="M146.256 89.7305H140.747C142.908 89.7305 144.659 91.2055 144.659 93.025V105.116C144.659 106.936 142.908 108.411 140.747 108.411H126.391C124.231 108.411 122.479 106.936 122.479 105.116V109.756C122.479 112.124 124.759 114.044 127.571 114.044H146.256C149.068 114.044 151.347 112.124 151.347 109.756V94.0185C151.347 91.6502 149.068 89.7305 146.256 89.7305V89.7305Z" fill="#B1B7E3"/>
<path d="M144.659 93.522V105.116C144.659 106.936 142.907 108.411 140.747 108.411H126.981C127.013 109.434 128.005 110.255 129.227 110.255H144.6C145.842 110.255 146.849 109.407 146.849 108.361V95.4135C146.849 94.3842 145.873 93.5486 144.659 93.522V93.522Z" fill="#EFA5B6"/>
<path d="M142.552 89.7071H123.867C121.055 89.7071 118.776 87.7872 118.776 85.419V69.6816C118.776 67.3134 121.055 65.3936 123.867 65.3936H142.553C145.364 65.3936 147.644 67.3134 147.644 69.6816V85.4191C147.644 87.7873 145.364 89.7071 142.552 89.7071Z" fill="#EF8BBD"/>
<path d="M140.896 85.9177H125.523C124.281 85.9177 123.275 85.0697 123.275 84.0237V71.0762C123.275 70.0301 124.281 69.1821 125.523 69.1821H140.896C142.138 69.1821 143.145 70.0301 143.145 71.0762V84.0237C143.145 85.0697 142.138 85.9177 140.896 85.9177V85.9177Z" fill="#FFDCB6"/>
<path d="M142.553 65.3936H137.044C139.204 65.3936 140.955 66.8686 140.955 68.6881V80.7793C140.955 82.5988 139.204 84.0738 137.044 84.0738H122.687C120.527 84.0738 118.776 82.5988 118.776 80.7793V85.419C118.776 87.7872 121.055 89.7071 123.867 89.7071H142.553C145.364 89.7071 147.644 87.7872 147.644 85.419V69.6816C147.644 67.3134 145.364 65.3936 142.553 65.3936V65.3936Z" fill="#E068BD"/>
<path d="M140.955 69.1853V80.7795C140.955 82.599 139.204 84.0741 137.044 84.0741H123.275C123.307 85.0969 124.301 85.9183 125.523 85.9183H140.896C142.138 85.9183 143.145 85.0703 143.145 84.0243V71.0769C143.145 70.0476 142.17 69.212 140.955 69.1853V69.1853Z" fill="#EFA5B6"/>
<path d="M113.326 114.044H94.6399C91.8281 114.044 89.5486 112.124 89.5486 109.756V94.0185C89.5486 91.6503 91.8281 89.7305 94.6399 89.7305H113.326C116.137 89.7305 118.417 91.6503 118.417 94.0185V109.756C118.417 112.124 116.137 114.044 113.326 114.044Z" fill="#CAB4EF"/>
<path d="M111.669 110.255H96.2963C95.0543 110.255 94.0474 109.407 94.0474 108.361V95.4131C94.0474 94.3671 95.0543 93.519 96.2963 93.519H111.669C112.911 93.519 113.918 94.3671 113.918 95.4131V108.361C113.918 109.407 112.911 110.255 111.669 110.255Z" fill="#FFDCB6"/>
<path d="M113.327 89.7305H107.818C109.978 89.7305 111.729 91.2055 111.729 93.025V105.116C111.729 106.936 109.978 108.411 107.818 108.411H93.4616C91.3011 108.411 89.5499 106.936 89.5499 105.116V109.756C89.5497 112.124 91.8293 114.044 94.6411 114.044H113.327C116.139 114.044 118.418 112.124 118.418 109.756V94.0185C118.418 91.6503 116.139 89.7305 113.327 89.7305V89.7305Z" fill="#BE87EF"/>
<path d="M111.728 93.5222V105.116C111.728 106.936 109.977 108.411 107.817 108.411H94.0505C94.0821 109.434 95.0742 110.255 96.2964 110.255H111.669C112.911 110.255 113.918 109.407 113.918 108.361V95.4138C113.918 94.3844 112.943 93.5488 111.728 93.5222V93.5222Z" fill="#EFA5B6"/>
<path d="M97.4218 102.232C96.7415 102.232 96.1901 101.767 96.1901 101.194V99.9121C96.1901 99.3393 96.7415 98.8748 97.4218 98.8748C98.102 98.8748 98.6534 99.3393 98.6534 99.9121V101.194C98.6534 101.767 98.102 102.232 97.4218 102.232Z" fill="white"/>
<path d="M97.4218 97.9154C96.7415 97.9154 96.1901 97.4509 96.1901 96.8781V96.4077C96.1901 95.8349 96.7415 95.3704 97.4218 95.3704C98.102 95.3704 98.6534 95.8349 98.6534 96.4077V96.8781C98.6534 97.451 98.102 97.9154 97.4218 97.9154Z" fill="white"/>
<path d="M138.209 108.351C137.554 108.316 137.059 107.833 137.059 107.281V97.4965H135.578C134.922 97.4965 134.349 97.0796 134.307 96.5284C134.26 95.9243 134.828 95.4219 135.536 95.4219H138.405C139.022 95.4219 139.523 95.8432 139.523 96.363V107.316C139.523 107.912 138.926 108.391 138.209 108.351V108.351Z" fill="#D58A9C"/>
<path d="M132.611 84.125C130.139 84.125 129.958 84.0739 129.792 84.0273C129.381 83.9121 129.075 83.6508 128.95 83.3105C128.736 82.7234 129.036 82.3918 129.84 81.5058C130.495 80.7827 131.716 79.437 133.761 76.9761C134.369 76.2443 134.761 75.5889 134.927 75.0269L134.971 74.7356C134.935 73.8026 134.022 73.0531 132.906 73.0531C131.92 73.0531 131.067 73.6429 130.878 74.4553C130.746 75.0175 130.099 75.3837 129.432 75.2733C128.764 75.163 128.329 74.6177 128.46 74.0556C128.876 72.2727 130.746 70.9785 132.906 70.9785C135.404 70.9785 137.436 72.6901 137.436 74.794V74.86L137.354 75.3973L137.34 75.4483C137.111 76.2806 136.586 77.1949 135.779 78.1658C134.248 80.008 133.171 81.2357 132.444 82.0481C133.661 82.0443 135.249 82.0388 136.735 82.0232C136.74 82.0231 136.746 82.0231 136.751 82.0231C137.424 82.0231 137.974 82.479 137.982 83.0473C137.991 83.6201 137.446 84.0905 136.766 84.0976C134.928 84.1169 133.59 84.125 132.611 84.125V84.125Z" fill="#D58A9C"/>
<path d="M103.983 102.925C103.303 102.925 102.751 102.46 102.751 101.887C102.751 101.315 103.303 100.85 103.983 100.85C105.123 100.85 106.05 100.069 106.05 99.1092C106.05 98.1494 105.123 97.3685 103.983 97.3685C102.997 97.3685 102.144 97.9583 101.955 98.7707C101.824 99.3329 101.177 99.6996 100.509 99.5888C99.8415 99.4784 99.4066 98.9332 99.5378 98.371C99.9535 96.5881 101.823 95.2939 103.983 95.2939C106.481 95.2939 108.513 97.0055 108.513 99.1093C108.513 101.213 106.481 102.925 103.983 102.925V102.925Z" fill="#D58A9C"/>
<path d="M103.983 108.481C101.735 108.481 99.8064 107.069 99.4962 105.196C99.4673 105.022 99.4526 104.843 99.4526 104.665C99.4526 104.092 100.004 103.628 100.684 103.628C101.365 103.628 101.916 104.092 101.916 104.665C101.916 104.747 101.923 104.829 101.936 104.909C102.077 105.763 102.957 106.406 103.983 106.406C105.123 106.406 106.05 105.625 106.05 104.665C106.05 103.705 105.123 102.924 103.983 102.924C103.303 102.924 102.751 102.46 102.751 101.887C102.751 101.314 103.303 100.85 103.983 100.85C106.481 100.85 108.513 102.561 108.513 104.665C108.513 106.769 106.481 108.481 103.983 108.481V108.481Z" fill="#D58A9C"/>
<path d="M110.657 61.2028L111.73 63.7417C111.776 63.8504 111.866 63.9365 111.981 63.9801L114.659 64.9965C115.038 65.14 115.038 65.6478 114.659 65.7914L111.981 66.8077C111.866 66.8512 111.776 66.9374 111.73 67.0461L110.657 69.5852C110.506 69.9439 109.97 69.9439 109.819 69.5852L108.747 67.0461C108.701 66.9374 108.61 66.8513 108.495 66.8077L105.817 65.7914C105.438 65.6478 105.438 65.14 105.817 64.9965L108.495 63.9801C108.61 63.9365 108.701 63.8504 108.747 63.7417L109.819 61.2028C109.97 60.8442 110.506 60.8442 110.657 61.2028V61.2028Z" fill="#F7C4DB"/>
<path d="M97.2121 83.2618C97.7073 82.2557 97.1402 81.1019 95.9455 80.6848C94.7508 80.2678 93.3809 80.7453 92.8857 81.7515C92.3906 82.7576 92.9576 83.9113 94.1523 84.3284C95.347 84.7455 96.7169 84.268 97.2121 83.2618Z" fill="#EF8BBD"/>
<path d="M100.032 69.3161C100.12 68.861 99.7525 68.4323 99.2121 68.3585C98.6717 68.2847 98.1627 68.5938 98.0751 69.049C97.9875 69.5041 98.3545 69.9329 98.8949 70.0066C99.4353 70.0804 99.9444 69.7713 100.032 69.3161Z" fill="#EF8BBD"/>
<path d="M104.294 76.6683L105.089 78.5517C105.123 78.6323 105.191 78.6962 105.276 78.7284L107.262 79.4823C107.543 79.5889 107.543 79.9655 107.262 80.0721L105.276 80.826C105.19 80.8582 105.123 80.9221 105.089 81.0027L104.294 82.8861C104.182 83.1522 103.784 83.1522 103.672 82.8861L102.876 81.0027C102.842 80.9221 102.775 80.8582 102.69 80.826L100.703 80.0721C100.423 79.9655 100.423 79.5889 100.703 79.4823L102.69 78.7284C102.775 78.6962 102.842 78.6323 102.876 78.5517L103.672 76.6683C103.784 76.4022 104.181 76.4022 104.294 76.6683Z" fill="#F7C4DB"/>
</g>
<defs>
<filter id="filter0_d_1_1154" x="0" y="0" width="240.896" height="224.977" filterUnits="userSpaceOnUse" color-interpolation-filters="sRGB">
<feFlood flood-opacity="0" result="BackgroundImageFix"/>
<feColorMatrix in="SourceAlpha" type="matrix" values="0 0 0 0 0 0 0 0 0 0 0 0 0 0 0 0 0 0 127 0" result="hardAlpha"/>
<feOffset dy="25"/>
<feGaussianBlur stdDeviation="35"/>
<feColorMatrix type="matrix" values="0 0 0 0 0.0392157 0 0 0 0 0.0117647 0 0 0 0 0.235294 0 0 0 0.15 0"/>
<feBlend mode="normal" in2="BackgroundImageFix" result="effect1_dropShadow_1_1154"/>
<feBlend mode="normal" in="SourceGraphic" in2="effect1_dropShadow_1_1154" result="shape"/>
</filter>
<clipPath id="clip0_1_1154">
<rect width="63.0599" height="53.1108" fill="white" transform="translate(88.918 60.9336)"/>
</clipPath>
</defs>
</svg>
