<svg width="67" height="59" viewBox="0 0 67 59" fill="none" xmlns="http://www.w3.org/2000/svg">
<path d="M26.0862 29.1707C31.7762 29.1707 36.4052 24.5979 36.4052 18.9771C36.4052 13.3562 31.7762 8.78341 26.0862 8.78341C20.3963 8.78341 15.7673 13.3562 15.7673 18.9771C15.7673 24.5979 20.3963 29.1707 26.0862 29.1707ZM26.0862 11.447C30.2891 11.447 33.7088 14.8252 33.7088 18.9771C33.7088 23.1289 30.2891 26.5071 26.0862 26.5071C21.8834 26.5071 18.4636 23.1289 18.4636 18.9771C18.463 14.8246 21.8827 11.447 26.0862 11.447ZM37.2722 33.7681C37.4856 33.3345 37.6265 32.899 37.7473 32.5211C37.9003 32.0418 38.0452 31.5891 38.2747 31.2954C38.4828 31.0282 38.8069 30.8267 39.2941 30.6623C39.4411 30.6126 39.5914 30.5675 39.7417 30.5218C40.3356 30.3415 41.008 30.1373 41.6368 29.6891C42.4756 29.0905 43.0333 28.2214 43.2077 27.241C43.3654 26.354 43.1883 25.5665 43.0319 24.8717L43.0071 24.7624C42.8823 24.2048 42.8239 23.7892 42.9192 23.4378C42.9923 23.1674 43.1567 22.8996 43.4507 22.5694L43.6473 22.3513C44.4606 21.4517 45.5746 20.2207 45.2786 18.3864C45.0854 17.1872 44.3552 16.3963 43.7687 15.7613C43.5157 15.4875 43.2762 15.2283 43.1145 14.9757C42.9427 14.7086 42.8595 14.4003 42.8655 14.0602C42.8709 13.7838 42.948 13.4556 43.0299 13.1076C43.0963 12.8279 43.1641 12.5388 43.2104 12.2246C43.3628 11.1925 43.2077 10.2723 42.7487 9.48942C42.2951 8.71579 41.5683 8.12514 40.5879 7.73401C40.2806 7.61204 39.9866 7.52321 39.7028 7.43703C39.3739 7.33759 39.0639 7.24412 38.8196 7.11883C38.5217 6.96636 38.2848 6.73699 38.1345 6.45525C37.9869 6.17749 37.8748 5.82813 37.756 5.45756C37.4426 4.47976 37.0527 3.2633 35.7281 2.51089L35.7254 2.51554C34.4134 1.75119 33.0935 2.03824 32.1285 2.24904C31.6017 2.36373 31.1051 2.47311 30.7293 2.40218C30.3065 2.32263 29.9549 2.02697 29.4174 1.55099C28.9933 1.17578 28.5128 0.750189 27.8941 0.431326C27.0552 -0.00155881 26.0809 -0.112266 25.1514 0.115777C24.2549 0.337191 23.5858 0.853603 22.9967 1.3793C22.9222 1.44559 22.8484 1.51254 22.7745 1.58016C22.4793 1.84864 22.2008 2.1032 21.9317 2.24507C21.6498 2.39422 21.3049 2.45455 20.9566 2.41411C20.6902 2.38361 20.4064 2.32594 20.1057 2.26562C19.032 2.0495 17.5617 1.75318 16.1558 2.7449C15.0741 3.50858 14.7245 4.60107 14.444 5.47944C14.3037 5.91829 14.1708 6.33261 13.9749 6.61634C13.7011 7.0121 13.2461 7.1765 12.4663 7.43305C12.0798 7.56033 11.6416 7.70418 11.2094 7.91035C10.3048 8.34257 9.60358 9.05719 9.2345 9.9223C8.80435 10.9313 8.92916 11.9349 9.06069 12.6025C9.09424 12.7715 9.13182 12.9406 9.1694 13.1083C9.27476 13.575 9.36535 13.9774 9.32845 14.3247C9.29288 14.6608 9.11706 14.9485 8.97614 15.1302C8.81777 15.3337 8.6339 15.5359 8.43862 15.7507C7.75011 16.5064 6.89316 17.4464 6.84484 18.9426L6.84954 19.0268C6.88108 20 7.25956 20.9108 7.97558 21.7341C8.12389 21.9052 8.28159 22.0702 8.43929 22.2353C8.71509 22.5243 8.97547 22.7975 9.13317 23.0653C9.30563 23.3576 9.37274 23.7275 9.32375 24.1061C9.29355 24.3387 9.2345 24.5933 9.17209 24.8625C9.05197 25.3802 8.91641 25.9662 8.93185 26.6179C8.95466 27.593 9.32845 28.5039 9.98273 29.1833C10.7115 29.9391 11.608 30.2573 12.3912 30.4959L12.4422 30.5118C12.9441 30.665 13.4179 30.8095 13.6917 31.0481C13.934 31.2596 14.1118 31.54 14.2527 31.9318C14.3138 32.1015 14.3668 32.2745 14.4205 32.4475C14.5366 32.8214 14.6668 33.2311 14.8627 33.6428L0 48.327L8.61779 50.4868L10.8041 59L26.003 43.9823L41.1952 58.9901L43.3856 50.4782L52 48.3184L37.2722 33.7681ZM13.2381 27.9676L13.1877 27.9523C12.6032 27.774 12.1905 27.6109 11.9362 27.3477C11.7476 27.1522 11.6356 26.8645 11.6282 26.5575C11.6208 26.238 11.708 25.8588 11.8013 25.4584C11.8751 25.1396 11.9516 24.8101 11.9986 24.4495C12.1241 23.4915 11.9342 22.5243 11.4644 21.7282C11.1517 21.1965 10.7538 20.7795 10.4021 20.4116C10.2726 20.2757 10.1438 20.1405 10.0217 20.0006C9.71364 19.6466 9.56399 19.3158 9.54788 18.9618C9.58882 18.4971 9.88811 18.1438 10.4431 17.5346C10.6645 17.2919 10.8934 17.0407 11.1162 16.7537C11.6215 16.102 11.9308 15.3589 12.0107 14.6051C12.0932 13.8262 11.9389 13.1381 11.802 12.5322C11.7698 12.3877 11.7362 12.2425 11.708 12.0973C11.606 11.5789 11.6101 11.217 11.7208 10.9584C11.8671 10.6157 12.1623 10.4168 12.3845 10.3114C12.6596 10.1795 12.9804 10.0748 13.3193 9.96274C14.2467 9.6578 15.4009 9.27795 16.2008 8.12381C16.6229 7.51459 16.8316 6.86162 17.0161 6.28488C17.2389 5.58882 17.3919 5.14997 17.7241 4.91596C18.1341 4.62692 18.5777 4.6793 19.5682 4.87883C19.9104 4.94778 20.2648 5.01937 20.6446 5.06312C21.5344 5.16654 22.4437 5.00015 23.2074 4.5951C23.7771 4.29281 24.2153 3.89374 24.6025 3.54173L24.8045 3.35943C25.185 3.02002 25.5011 2.77805 25.8051 2.70314C26.095 2.63221 26.3929 2.66469 26.6472 2.79595C26.966 2.96035 27.2827 3.24077 27.6183 3.53775C28.2531 4.09991 29.0436 4.79995 30.2247 5.02202C31.1447 5.19438 31.9761 5.0134 32.7103 4.85298C33.5095 4.67797 33.9806 4.59046 34.3604 4.81519L34.3839 4.82315C34.7792 5.04788 34.9382 5.49468 35.1852 6.26499C35.3274 6.70848 35.4885 7.21097 35.7475 7.69822C36.1555 8.46455 36.7883 9.08305 37.5775 9.48676C38.0399 9.72343 38.5049 9.86397 38.9143 9.98727C39.1538 10.0595 39.3807 10.1278 39.5779 10.2067C40.1316 10.4274 40.3208 10.6668 40.4141 10.8265C40.5631 11.0804 40.604 11.4132 40.5409 11.8434C40.5107 12.0469 40.4584 12.2704 40.4027 12.5064C40.298 12.9512 40.1792 13.4556 40.1685 14.0118C40.1517 14.871 40.3826 15.6976 40.8355 16.4043C41.1241 16.8538 41.4703 17.2283 41.775 17.5591C42.2542 18.0782 42.5508 18.4156 42.6145 18.808C42.6997 19.337 42.3816 19.7534 41.6348 20.5787L41.4261 20.8107C40.851 21.4557 40.4973 22.0716 40.3134 22.7497C40.0631 23.6732 40.194 24.5396 40.3732 25.3384L40.3987 25.4511C40.5154 25.9689 40.6161 26.4157 40.551 26.7803C40.4986 27.0739 40.3228 27.3398 40.0571 27.53C39.79 27.7203 39.3813 27.8442 38.9485 27.9762C38.77 28.0305 38.5928 28.0842 38.419 28.1432C37.4225 28.48 36.6763 28.9798 36.1374 29.6712C35.6167 30.3395 35.3818 31.0727 35.1751 31.7203C34.9315 32.4827 34.7745 32.9248 34.3812 33.1482L34.3631 33.1648C34.0068 33.3756 33.5954 33.3146 32.7418 33.1257C32.2184 33.0104 31.6379 32.8871 30.9836 32.8857C29.3617 32.903 28.3182 33.8165 27.4794 34.5503C27.3747 34.6418 27.2693 34.7339 27.1626 34.8254C26.7425 35.1834 26.0956 35.5195 25.397 35.0879C25.1286 34.9222 24.8609 34.6842 24.5777 34.4323C23.9798 33.9007 23.2362 33.2391 22.135 32.9865C21.164 32.7644 20.2654 32.9593 19.544 33.1164C18.9938 33.2364 18.5187 33.3392 18.1408 33.2523C17.8516 33.186 17.5872 32.9931 17.4148 32.7227C17.2409 32.4495 17.1235 32.0703 16.9987 31.6693C16.9336 31.4598 16.8678 31.2503 16.794 31.0448C16.4994 30.2221 16.0686 29.5718 15.4781 29.0554C14.7688 28.4342 13.9199 28.1757 13.2381 27.9676ZM41.1677 48.2859L39.7504 53.7954L26.0037 40.2149L12.2516 53.8034L10.837 48.2952L5.26046 46.8978L16.7363 35.5613C16.99 35.6839 17.255 35.7813 17.5295 35.845C18.5019 36.0684 19.4024 35.8735 20.1252 35.7164C20.6741 35.5971 21.1485 35.493 21.5264 35.5805C21.9297 35.6733 22.2639 35.9564 22.7752 36.4111C23.1154 36.7134 23.5006 37.0561 23.9684 37.3452C24.6273 37.7522 25.3467 37.9531 26.0708 37.9531C27.0606 37.9531 28.0592 37.5785 28.9235 36.8427C29.0402 36.7432 29.155 36.6431 29.2691 36.543C30.0113 35.8934 30.426 35.5546 31.0145 35.548C31.342 35.5308 31.7373 35.6315 32.1547 35.7243C33.021 35.9159 34.1772 36.1692 35.3617 35.6468L46.7422 46.8898L41.1677 48.2859Z" fill="#2DADFF"/>
</svg>
