<svg width="241" height="225" viewBox="0 0 241 225" fill="none" xmlns="http://www.w3.org/2000/svg">
<g filter="url(#filter0_d_1_1104)">
<rect x="70" y="45" width="100.896" height="84.9773" rx="10" fill="white"/>
</g>
<g clip-path="url(#clip0_1_1104)">
<path d="M122.84 70.2238C122.344 70.2246 121.91 69.9424 121.785 69.5378C121.661 69.1333 121.877 68.7091 122.311 68.5068C130.622 64.6243 140.775 61.7306 144.34 65.2652C144.73 65.6506 144.676 66.2295 144.218 66.5582C143.761 66.8869 143.073 66.841 142.683 66.4557C140.852 64.6435 133.63 65.3165 123.366 70.113C123.204 70.1864 123.023 70.2245 122.84 70.2238V70.2238Z" fill="#E57E25"/>
<path d="M96.8003 94.603C96.3545 94.6032 95.9537 94.3742 95.7892 94.0252C94.3008 90.8706 97.6723 85.4442 104.813 79.5067C105.247 79.1892 105.899 79.2105 106.302 79.5555C106.705 79.9004 106.719 80.4499 106.335 80.8098C99.1716 86.771 96.8917 91.4026 97.8093 93.3485C97.9426 93.6304 97.9014 93.9496 97.6994 94.2009C97.4973 94.4521 97.1606 94.6027 96.8003 94.603V94.603Z" fill="#E57E25"/>
<path d="M118.337 70.3571C118.152 70.3571 117.969 70.3171 117.807 70.2408C107.241 65.252 100.314 64.7164 98.3453 66.3252C97.9154 66.6793 97.2261 66.6727 96.8058 66.3106C96.3854 65.9485 96.3932 65.368 96.8232 65.014C100.688 61.8456 110.74 64.8107 118.86 68.642C119.293 68.8455 119.507 69.2695 119.382 69.6731C119.257 70.0768 118.823 70.358 118.328 70.3571H118.337Z" fill="#E57E25"/>
<path d="M144.138 94.5122C143.784 94.5121 143.452 94.367 143.249 94.1232C143.045 93.8794 142.995 93.5675 143.115 93.2869C144.14 90.8851 140.782 85.9879 134.56 80.8105C134.145 80.4535 134.146 79.8818 134.563 79.526C134.98 79.1702 135.659 79.162 136.088 79.5074C143.121 85.3597 146.512 90.7422 145.16 93.906C145.005 94.2693 144.596 94.5117 144.138 94.5122V94.5122Z" fill="#E57E25"/>
<path d="M111.75 106.718H108.488C107.888 106.718 107.401 106.308 107.401 105.802C107.401 105.297 107.888 104.887 108.488 104.887H111.75C112.35 104.887 112.837 105.297 112.837 105.802C112.837 106.308 112.35 106.718 111.75 106.718Z" fill="#7F8284"/>
<path d="M132.407 106.718H129.146C128.545 106.718 128.058 106.308 128.058 105.802C128.058 105.297 128.545 104.887 129.146 104.887H132.407C133.008 104.887 133.495 105.297 133.495 105.802C133.495 106.308 133.008 106.718 132.407 106.718Z" fill="#7F8284"/>
<path d="M139.931 82.6721C139.501 86.4273 137.546 89.9427 134.397 92.6258C131.087 95.3861 129.201 99.1329 129.146 103.056H111.75C111.742 101.115 111.265 99.1954 110.347 97.415C109.427 95.6317 108.122 94.0078 106.499 92.6258C101.49 88.3466 99.6474 82.1089 101.691 76.3519C103.735 70.5948 109.341 66.2329 116.316 64.9716C116.819 64.8853 117.181 64.5151 117.186 64.0834V63.6805C117.186 62.1633 118.646 60.9333 120.448 60.9333C122.249 60.9333 123.71 62.1633 123.71 63.6805V64.0834C123.715 64.5151 124.077 64.8853 124.579 64.9716C134.288 66.7358 140.888 74.3458 139.931 82.6721V82.6721Z" fill="#F0C419"/>
<path d="M136.454 82.6721C136.16 86.2993 134.575 89.7678 131.907 92.6258C129.104 95.5884 127.582 99.2671 127.593 103.056H113.302C113.3 101.134 112.911 99.2267 112.15 97.415C111.425 95.6794 110.356 94.06 108.988 92.6258C106.32 89.7678 104.736 86.2993 104.441 82.6721C103.655 74.0737 109.319 66.6657 117.053 64.9716C117.5 64.8427 117.791 64.4804 117.768 64.0834V63.6805C117.621 62.3021 118.814 61.0793 120.448 60.9333C121.191 60.9474 121.887 61.2435 122.342 61.7392C122.86 62.2912 123.138 62.9766 123.128 63.6805V64.0834C123.104 64.4804 123.396 64.8427 123.842 64.9716C131.577 66.6657 137.24 74.0737 136.454 82.6721V82.6721Z" fill="#F3D55B"/>
<path d="M129.146 103.055V108.55C129.142 109.56 128.171 110.378 126.971 110.381H113.924C112.725 110.378 111.753 109.56 111.75 108.55V103.055H129.146Z" fill="#95A5A5"/>
<path d="M125.884 110.839C125.884 112.607 123.449 114.044 120.448 114.044C117.447 114.044 115.012 112.607 115.012 110.839C115.011 110.685 115.033 110.531 115.077 110.382H125.819C125.863 110.531 125.884 110.685 125.884 110.839V110.839Z" fill="#393F4A"/>
<path d="M101.69 96.6461C100.096 96.7202 98.5181 96.3466 97.2037 95.5839C96.8765 95.3891 96.703 95.0585 96.7523 94.7236C96.8016 94.3887 97.0656 94.1037 97.4393 93.982C97.8131 93.8604 98.236 93.9217 98.5399 94.1417C100.099 95.1645 103.601 95.0253 108.148 93.7617C112.258 92.5726 116.195 90.9951 119.884 89.0595C121.314 88.327 122.71 87.5587 124.048 86.7822C129.397 83.7347 134.233 80.0934 138.426 75.9567C141.973 72.3168 143.74 69.0679 143.154 67.2649C143 66.7785 143.341 66.2786 143.917 66.1458C144.494 66.0129 145.089 66.2968 145.251 66.7814C146.27 69.9158 143.017 74.1326 140.108 77.1178C135.787 81.3865 130.8 85.1442 125.285 88.2894C123.918 89.0861 122.482 89.8718 121.014 90.6254C117.182 92.634 113.092 94.2704 108.823 95.5033C106.528 96.1872 104.123 96.5726 101.69 96.6461V96.6461Z" fill="#F29C1F"/>
<path d="M139.203 96.6527C136.768 96.5829 134.36 96.1943 132.067 95.5007C127.8 94.2679 123.713 92.6321 119.884 90.6246C118.414 89.8701 116.977 89.0844 115.611 88.2868C110.095 85.1417 105.108 81.3839 100.786 77.1153C97.843 74.0934 94.5671 69.8345 95.6761 66.6955C95.8505 66.2143 96.4532 65.9417 97.0258 66.0851C97.5985 66.2285 97.9264 66.7341 97.7603 67.2174C97.1287 69.0113 98.8889 72.2776 102.471 75.9541C106.664 80.091 111.499 83.7326 116.848 86.7805C118.181 87.5579 119.581 88.3253 121.014 89.0597C124.7 90.9942 128.635 92.5707 132.742 93.7591C137.503 95.0823 141.178 95.1628 142.577 93.9752C143.001 93.6164 143.689 93.6145 144.115 93.9711C144.541 94.3276 144.544 94.9075 144.12 95.2663C142.769 96.2669 140.997 96.7666 139.203 96.6527V96.6527Z" fill="#F29C1F"/>
<path d="M97.0721 97.5613C99.1738 97.5613 100.877 96.1264 100.877 94.3563C100.877 92.5863 99.1738 91.1514 97.0721 91.1514C94.9705 91.1514 93.2668 92.5863 93.2668 94.3563C93.2668 96.1264 94.9705 97.5613 97.0721 97.5613Z" fill="#3B97D3"/>
<path d="M97.0721 69.1746C99.1738 69.1746 100.877 67.7397 100.877 65.9696C100.877 64.1996 99.1738 62.7646 97.0721 62.7646C94.9705 62.7646 93.2668 64.1996 93.2668 65.9696C93.2668 67.7397 94.9705 69.1746 97.0721 69.1746Z" fill="#3B97D3"/>
<path d="M143.823 97.5613C145.925 97.5613 147.629 96.1264 147.629 94.3563C147.629 92.5863 145.925 91.1514 143.823 91.1514C141.722 91.1514 140.018 92.5863 140.018 94.3563C140.018 96.1264 141.722 97.5613 143.823 97.5613Z" fill="#3B97D3"/>
<path d="M143.823 69.1746C145.925 69.1746 147.629 67.7397 147.629 65.9696C147.629 64.1996 145.925 62.7646 143.823 62.7646C141.722 62.7646 140.018 64.1996 140.018 65.9696C140.018 67.7397 141.722 69.1746 143.823 69.1746Z" fill="#3B97D3"/>
<path d="M106.841 76.2651C106.464 76.2651 106.114 76.1007 105.916 75.8305C105.718 75.5603 105.7 75.2231 105.869 74.9392C107.911 71.4956 111.575 68.9318 115.968 67.8727C116.346 67.7714 116.76 67.8515 117.047 68.0816C117.335 68.3117 117.45 68.6554 117.349 68.9784C117.248 69.3015 116.947 69.5525 116.562 69.6336C112.756 70.5525 109.582 72.7747 107.814 75.7588C107.63 76.0692 107.253 76.2653 106.841 76.2651Z" fill="white"/>
</g>
<defs>
<filter id="filter0_d_1_1104" x="0" y="0" width="240.896" height="224.977" filterUnits="userSpaceOnUse" color-interpolation-filters="sRGB">
<feFlood flood-opacity="0" result="BackgroundImageFix"/>
<feColorMatrix in="SourceAlpha" type="matrix" values="0 0 0 0 0 0 0 0 0 0 0 0 0 0 0 0 0 0 127 0" result="hardAlpha"/>
<feOffset dy="25"/>
<feGaussianBlur stdDeviation="35"/>
<feColorMatrix type="matrix" values="0 0 0 0 0.0392157 0 0 0 0 0.0117647 0 0 0 0 0.235294 0 0 0 0.15 0"/>
<feBlend mode="normal" in2="BackgroundImageFix" result="effect1_dropShadow_1_1104"/>
<feBlend mode="normal" in="SourceGraphic" in2="effect1_dropShadow_1_1104" result="shape"/>
</filter>
<clipPath id="clip0_1_1104">
<rect width="63.0599" height="53.1108" fill="white" transform="translate(88.9178 60.9333)"/>
</clipPath>
</defs>
</svg>
