<svg width="241" height="225" viewBox="0 0 241 225" fill="none" xmlns="http://www.w3.org/2000/svg">
<g filter="url(#filter0_d_1_1087)">
<rect x="70" y="45" width="100.896" height="84.9773" rx="10" fill="white"/>
</g>
<g clip-path="url(#clip0_1_1087)">
<path d="M122.426 110.697C121.078 110.697 120.274 109.572 120.69 108.609L128.605 90.2759C128.954 89.4684 130.014 89.0518 130.973 89.3452C131.932 89.6389 132.427 90.532 132.078 91.3396L124.163 109.672C123.889 110.304 123.181 110.697 122.426 110.697V110.697Z" fill="#3AB4FB"/>
<path d="M142.215 110.697C141.462 110.697 140.755 110.307 140.48 109.677L132.486 91.3443C132.134 90.5375 132.626 89.6436 133.583 89.3474C134.541 89.0508 135.602 89.4649 135.954 90.2713L143.949 108.604C144.399 109.637 143.475 110.697 142.215 110.697V110.697Z" fill="#1D9CFD"/>
<path d="M146.173 64.2524H118.468C115.263 64.2524 112.664 66.4413 112.664 69.1412V87.475C112.664 90.1749 115.263 92.3638 118.468 92.3638H146.173C149.379 92.3638 151.977 90.1749 151.977 87.475V69.1412C151.977 66.4413 149.379 64.2524 146.173 64.2524V64.2524Z" fill="#EFF6FE"/>
<path d="M146.173 64.2524H132.078V92.3638H146.173C149.379 92.3638 151.977 90.1749 151.977 87.475V69.1412C151.977 66.4413 149.379 64.2524 146.173 64.2524V64.2524Z" fill="#D9E4EF"/>
<path d="M108.706 74.1419C108.706 77.8848 105.103 80.919 100.659 80.919C96.215 80.919 92.6124 77.8848 92.6124 74.1419C92.6124 70.3987 96.215 67.3645 100.659 67.3645C105.103 67.3645 108.706 70.3987 108.706 74.1419Z" fill="#FFCFBE"/>
<path d="M118.632 90.5338C117.719 90.1492 117.35 89.2148 117.806 88.4462L122.753 80.1127C123.21 79.3441 124.319 79.0329 125.232 79.417C126.144 79.8015 126.514 80.7359 126.058 81.5046L121.11 89.8376C120.653 90.6075 119.543 90.9175 118.632 90.5338V90.5338Z" fill="#FFB826"/>
<path d="M108.707 74.1418C108.707 77.8847 105.104 80.9189 100.659 80.9189V67.364C105.104 67.364 108.707 70.3982 108.707 74.1418Z" fill="#F9BCAA"/>
<path d="M142.215 73.1981H122.426C121.406 73.1981 120.579 72.5012 120.579 71.6422C120.579 70.7827 121.406 70.0862 122.426 70.0862H142.215C143.235 70.0862 144.062 70.7827 144.062 71.6422C144.062 72.5012 143.235 73.1981 142.215 73.1981Z" fill="#3AB4FB"/>
<path d="M142.215 79.8642H133.925C132.905 79.8642 132.078 79.1676 132.078 78.3082C132.078 77.4487 132.905 76.7522 133.925 76.7522H142.215C143.235 76.7522 144.062 77.4487 144.062 78.3082C144.062 79.1676 143.235 79.8642 142.215 79.8642Z" fill="#1D9CFD"/>
<path d="M142.215 86.5307H133.925C132.905 86.5307 132.078 85.8337 132.078 84.9747C132.078 84.1152 132.905 83.4187 133.925 83.4187H142.215C143.235 83.4187 144.062 84.1152 144.062 84.9747C144.062 85.8337 143.235 86.5307 142.215 86.5307Z" fill="#1D9CFD"/>
<path d="M142.215 70.0862H132.078V73.1981H142.215C143.235 73.1981 144.062 72.5012 144.062 71.6422C144.062 70.7827 143.235 70.0862 142.215 70.0862Z" fill="#1D9CFD"/>
<path d="M106.595 110.697H94.7226C93.7022 110.697 92.8751 110 92.8751 109.141V100.443C90.5769 99.7921 88.9175 97.9602 88.9175 95.8077V90.8079C88.9175 88.1624 90.14 85.6785 92.3594 83.8141C94.5369 81.9753 97.5631 80.9189 100.659 80.9189H102.292C105.533 80.9189 107.432 81.9186 110.094 83.0333C113.025 84.2611 116.683 85.7927 119.015 86.7713C121.167 87.6721 122.198 89.7844 121.423 91.6965C121.421 91.7026 121.418 91.7087 121.416 91.7148C120.95 92.8761 119.905 93.8117 118.549 94.2817C117.188 94.7481 115.663 94.6987 114.358 94.1488C112.496 93.3644 110.195 92.3955 108.443 91.6585V109.141C108.443 110 107.616 110.697 106.595 110.697V110.697Z" fill="#FF7579"/>
<path d="M119.015 86.7713C116.683 85.7927 113.025 84.2611 110.094 83.0333C107.432 81.9186 105.533 80.9189 102.292 80.9189H100.659C100.659 80.9189 100.659 80.9189 100.659 80.9189V110.697H106.595C107.616 110.697 108.443 110 108.443 109.141V91.6585C110.195 92.3955 112.496 93.3644 114.358 94.1488C115.663 94.6987 117.188 94.7477 118.548 94.2817C119.904 93.8117 120.95 92.8761 121.416 91.7144C121.418 91.7083 121.421 91.7022 121.423 91.6961C122.198 89.7844 121.167 87.6721 119.015 86.7713V86.7713Z" fill="#FE4A60"/>
</g>
<defs>
<filter id="filter0_d_1_1087" x="0" y="0" width="240.896" height="224.977" filterUnits="userSpaceOnUse" color-interpolation-filters="sRGB">
<feFlood flood-opacity="0" result="BackgroundImageFix"/>
<feColorMatrix in="SourceAlpha" type="matrix" values="0 0 0 0 0 0 0 0 0 0 0 0 0 0 0 0 0 0 127 0" result="hardAlpha"/>
<feOffset dy="25"/>
<feGaussianBlur stdDeviation="35"/>
<feColorMatrix type="matrix" values="0 0 0 0 0.0392157 0 0 0 0 0.0117647 0 0 0 0 0.235294 0 0 0 0.15 0"/>
<feBlend mode="normal" in2="BackgroundImageFix" result="effect1_dropShadow_1_1087"/>
<feBlend mode="normal" in="SourceGraphic" in2="effect1_dropShadow_1_1087" result="shape"/>
</filter>
<clipPath id="clip0_1_1087">
<rect width="63.0599" height="53.1108" fill="white" transform="translate(88.9175 60.9331)"/>
</clipPath>
</defs>
</svg>
