<svg width="65" height="50" viewBox="0 0 65 50" fill="none" xmlns="http://www.w3.org/2000/svg">
<path d="M50 24.875C50 19.0294 47.9241 13.357 44.1562 8.90081C44.1554 8.89992 44.1554 8.89903 44.1545 8.89814C44.1536 8.89725 44.1527 8.89725 44.1527 8.89637C44.1509 8.89459 44.15 8.89281 44.1482 8.89104C39.3848 3.23997 32.4054 0 25 0C17.5947 0 10.6152 3.24086 5.85357 8.88926L5.85268 8.89015C5.85 8.89281 5.84643 8.8937 5.84375 8.89725C5.84018 8.90081 5.84018 8.90614 5.83661 8.91058C2.07321 13.3668 0 19.0338 0 24.875C0 30.6389 2.03214 36.2606 5.72143 40.7026C5.72232 40.7035 5.72321 40.7044 5.72411 40.7053C10.492 46.4532 17.5161 49.75 24.9991 49.75C28.9339 49.75 32.8214 48.8145 36.2937 47.0591C37.583 48.4876 38.5509 49.3955 38.6759 49.511C38.8473 49.6709 39.0661 49.75 39.2848 49.75C39.5036 49.75 39.7223 49.6709 39.8937 49.511C40.3071 49.1281 49.9991 40.0425 49.9991 31.9821C49.9991 31.0147 49.8571 30.081 49.6134 29.1881C49.8679 27.7925 50 26.3435 50 24.875ZM6.58036 38.8894C3.675 35.112 2.01071 30.5163 1.825 25.7634H11.3696C11.4643 28.9714 12.0723 32.0967 13.1429 35.0409C10.7902 36.0394 8.59107 37.3303 6.58036 38.8894ZM6.70357 10.7007C8.70714 12.2358 10.892 13.5045 13.2223 14.4844C12.1009 17.4933 11.4679 20.6978 11.3705 23.9866H1.825C2.01339 19.1537 3.72054 14.5012 6.70357 10.7007ZM24.1063 32.6333C20.8955 32.7257 17.7616 33.3165 14.7634 34.3924C13.7929 31.6712 13.2446 28.7715 13.1536 25.7634H24.1063V32.6333ZM13.1536 23.9866C13.2464 20.8941 13.8205 17.9162 14.8429 15.1293C17.8062 16.1874 20.9143 16.7675 24.1063 16.8581V23.9866H13.1536ZM25.892 2.6483C29.6411 5.51781 32.5643 9.22774 34.4482 13.492C31.708 14.4586 28.8375 14.9916 25.892 15.0814V2.6483ZM24.1063 15.0814C21.1446 14.9916 18.2598 14.4542 15.5071 13.4796C17.3723 9.26505 20.2866 5.55157 24.1063 2.63408V15.0814ZM24.1063 34.4101V47.115C20.2196 44.1478 17.2741 40.3526 15.4143 36.0474C18.2045 35.0507 21.1196 34.5016 24.1063 34.4101ZM25.892 34.4252C26.9027 34.4572 27.9089 34.5389 28.9054 34.6784C29.4188 36.8727 30.475 39.0626 31.7161 41.0615C30.0946 43.3429 28.1384 45.3551 25.892 47.0786V34.4252ZM28.6107 32.8545C27.708 32.7453 26.8027 32.676 25.892 32.6484V25.7634H30.6C29.3286 27.5162 28.5705 29.6608 28.5705 31.9821C28.5705 32.2718 28.5866 32.5632 28.6107 32.8545ZM32.2214 23.9866H25.892V16.8581C29.0696 16.7666 32.1643 16.191 35.1161 15.1409C35.8902 17.2322 36.4071 19.4158 36.6598 21.6581C34.9893 22.0801 33.4768 22.8877 32.2214 23.9866ZM38.4205 21.365C38.1473 18.9974 37.5955 16.6911 36.775 14.4835C39.0982 13.5107 41.2839 12.2429 43.2964 10.6998C46.2786 14.4995 47.9866 19.1529 48.175 23.9866H46.3482C44.4598 22.3333 41.992 21.3214 39.2848 21.3214C38.9938 21.3214 38.7071 21.3419 38.4205 21.365ZM47.9696 25.7634H48.1741C48.1714 25.8487 48.167 25.934 48.1625 26.0192C48.1018 25.9304 48.0321 25.8496 47.9696 25.7634ZM42.1562 9.33257C40.2875 10.7575 38.2625 11.9311 36.108 12.8364C34.2571 8.62185 31.4509 4.91814 27.875 1.95979C33.3509 2.63675 38.408 5.23175 42.1562 9.33257ZM22.1205 1.96068C18.5384 4.93769 15.7384 8.66627 13.892 12.8391C11.7312 11.9276 9.70446 10.7522 7.84286 9.33346C11.5893 5.23352 16.6455 2.63853 22.1205 1.96068ZM7.70804 40.2664C9.57679 38.8219 11.617 37.6234 13.8009 36.6933C15.6446 40.9531 18.4777 44.7617 22.1214 47.7902C16.575 47.1053 11.4705 44.4561 7.70804 40.2664ZM27.8938 47.7938C29.7286 46.2746 31.3625 44.5591 32.7777 42.6651C33.5464 43.7649 34.3411 44.7803 35.0902 45.6749C32.8312 46.7614 30.3973 47.4819 27.8938 47.7938ZM39.2848 47.617C37.1813 45.507 30.3563 38.1849 30.3563 31.9821C30.3563 27.0835 34.3616 23.0982 39.2848 23.0982C44.208 23.0982 48.2134 27.0835 48.2134 31.9821C48.2134 38.1778 41.3875 45.5061 39.2848 47.617ZM39.2848 26.6518C36.3304 26.6518 33.9277 29.0425 33.9277 31.9821C33.9277 34.9218 36.3304 37.3125 39.2848 37.3125C42.2393 37.3125 44.642 34.9218 44.642 31.9821C44.642 29.0425 42.2393 26.6518 39.2848 26.6518ZM39.2848 35.5357C37.3152 35.5357 35.7134 33.9419 35.7134 31.9821C35.7134 30.0223 37.3152 28.4286 39.2848 28.4286C41.2545 28.4286 42.8563 30.0223 42.8563 31.9821C42.8563 33.9419 41.2545 35.5357 39.2848 35.5357Z" fill="#2DADFF"/>
</svg>
