<svg width="70" height="55" viewBox="0 0 70 55" fill="none" xmlns="http://www.w3.org/2000/svg">
<path d="M24.2917 13.5166C24.0197 13.5166 23.7539 13.5958 23.5278 13.7441C23.3017 13.8925 23.1254 14.1033 23.0213 14.35C22.9173 14.5967 22.89 14.8681 22.9431 15.13C22.9962 15.3919 23.1271 15.6325 23.3194 15.8213C23.5117 16.0101 23.7567 16.1387 24.0234 16.1907C24.2902 16.2428 24.5666 16.2161 24.8179 16.1139C25.0691 16.0117 25.2839 15.8387 25.4349 15.6167C25.586 15.3947 25.6667 15.1337 25.6667 14.8666C25.6667 14.5086 25.5218 14.1652 25.2639 13.912C25.0061 13.6588 24.6563 13.5166 24.2917 13.5166ZM32.5417 13.5166C32.2697 13.5166 32.0039 13.5958 31.7778 13.7441C31.5516 13.8925 31.3754 14.1033 31.2713 14.35C31.1673 14.5967 31.14 14.8681 31.1931 15.13C31.2462 15.3919 31.3771 15.6325 31.5694 15.8213C31.7617 16.0101 32.0067 16.1387 32.2734 16.1907C32.5401 16.2428 32.8166 16.2161 33.0679 16.1139C33.3191 16.0117 33.5339 15.8387 33.6849 15.6167C33.836 15.3947 33.9167 15.1337 33.9167 14.8666C33.9167 14.5086 33.7718 14.1652 33.5139 13.912C33.2561 13.6588 32.9063 13.5166 32.5417 13.5166ZM29.3333 18.0167H31.1667C31.1667 18.7329 30.8769 19.4196 30.3612 19.926C29.8455 20.4324 29.146 20.7168 28.4167 20.7168C27.6873 20.7168 26.9879 20.4324 26.4721 19.926C25.9564 19.4196 25.6667 18.7329 25.6667 18.0167H27.5C27.5 18.2555 27.5966 18.4844 27.7685 18.6532C27.9404 18.822 28.1736 18.9168 28.4167 18.9168C28.6598 18.9168 28.8929 18.822 29.0649 18.6532C29.2368 18.4844 29.3333 18.2555 29.3333 18.0167ZM53.9321 32.4298L45.65 33.7862C45.1049 33.8764 44.5838 34.0728 44.1173 34.364L43.483 32.7907C43.2333 32.1636 42.8775 31.5824 42.4307 31.0717L42.6699 28.9386C42.7314 28.3961 42.7638 27.8509 42.7671 27.3051C42.7655 25.3105 42.3504 23.3372 41.547 21.5053C40.7587 19.6918 40.4013 17.726 40.502 15.7568L40.6597 12.6067C40.6679 12.4123 40.6771 12.2197 40.6771 12.036C40.6777 10.4303 40.3509 8.84071 39.7161 7.36091C39.0812 5.8811 38.1511 4.54105 36.9805 3.41971C35.8099 2.29837 34.4225 1.41844 32.9002 0.831777C31.3778 0.24511 29.7513 -0.0364224 28.1164 0.0037699C26.4815 0.0439622 24.8713 0.405066 23.3808 1.0658C21.8902 1.72654 20.5495 2.67353 19.4375 3.85099C18.3255 5.02844 17.4649 6.41252 16.9062 7.92166C16.3476 9.43081 16.1022 11.0345 16.1847 12.6382L16.3405 15.7433C16.3497 15.9665 16.3579 16.1879 16.3579 16.4102C16.3612 18.1604 15.9996 19.8928 15.2955 21.5008C14.2706 23.8428 13.8839 26.4064 14.1735 28.9395L14.4118 31.0438C14.1352 31.3619 13.8922 31.7069 13.6868 32.0734L12.4291 28.9971C12.2948 28.6639 12.0932 28.3609 11.8363 28.1063C11.5794 27.8518 11.2726 27.651 10.9345 27.5161C10.5963 27.3812 10.2339 27.315 9.86896 27.3215C9.50405 27.328 9.14427 27.4071 8.81135 27.554C8.47843 27.7008 8.17928 27.9124 7.93197 28.1759C7.68467 28.4395 7.49433 28.7495 7.37247 29.0873C7.25061 29.4251 7.19975 29.7836 7.22296 30.1412C7.24617 30.4988 7.34297 30.8481 7.50751 31.168L7.68351 31.5136H5.88226C5.17055 31.5126 4.46872 31.35 3.83168 31.0384L2.91502 30.5884C2.60732 30.4381 2.2656 30.3674 1.9223 30.3832C1.579 30.399 1.24551 30.5007 0.953474 30.6786C0.66144 30.8565 0.420555 31.1047 0.253685 31.3997C0.0868151 31.6947 -0.000503723 32.0267 1.66716e-05 32.3641V34.9049C-0.00176745 35.4066 0.139678 35.8988 0.408311 36.3257C0.676944 36.7525 1.06201 37.0968 1.51985 37.3197L3.01218 38.0523C3.90375 38.4886 4.8861 38.7163 5.88226 38.7174H6.41668V41.3824L5.75851 49.7878C5.71606 50.3276 5.78771 50.8701 5.96895 51.3814C6.1502 51.8926 6.43713 52.3616 6.81173 52.7588C7.18634 53.156 7.64053 53.4729 8.14579 53.6896C8.65106 53.9063 9.19649 54.0181 9.74785 54.018C9.79001 54.018 9.82851 54.0072 9.86976 54.0063C9.88076 54.0063 9.88993 54.0117 9.90093 54.0117H9.9101C9.9816 54.0117 10.0531 54.018 10.1237 54.018C10.8804 54.0181 11.619 53.7899 12.2392 53.3643C12.8595 52.9386 13.3315 52.3361 13.5914 51.6383L17.7824 43.988C18.0277 45.1302 18.529 46.2045 19.25 47.1327V54.018H21.0833V46.8177C21.0835 46.6069 21.0082 46.4027 20.8707 46.2408C19.8125 44.9915 19.3024 43.381 19.4523 41.7628C19.6022 40.1447 20.3997 38.6509 21.67 37.6095L20.4967 36.2253C20.0231 36.6165 19.5971 37.0602 19.2271 37.5474C18.7312 38.1928 18.3397 38.9096 18.0666 39.6724L13.75 47.5485V36.6141L15.0526 33.4289C15.2709 32.886 15.5989 32.3921 16.0169 31.9771C16.4466 31.5487 16.9583 31.2081 17.5226 30.9747C18.0869 30.7413 18.6927 30.6198 19.305 30.6172H22.3722L27.6118 40.0486C27.6907 40.1906 27.807 40.3091 27.9487 40.3917C28.0903 40.4742 28.252 40.5178 28.4167 40.5178C28.5814 40.5178 28.7431 40.4742 28.8847 40.3917C29.0263 40.3091 29.1427 40.1906 29.2215 40.0486L31.1667 36.5466V48.6178C31.1666 48.8253 31.2396 49.0264 31.3732 49.1871C31.5069 49.3478 31.693 49.4583 31.9 49.4998L35.75 50.2558V54.018H37.5833V50.6158L41.0667 51.2999C41.127 51.3119 41.1884 51.3179 41.25 51.3179H42.9843L43.1603 51.6392C43.4239 52.3369 43.8985 52.9387 44.5205 53.364C45.1425 53.7892 45.8821 54.0174 46.64 54.018C46.8425 54.0191 47.0446 54.0025 47.2441 53.9684C47.8905 53.8605 48.4961 53.5863 48.9993 53.1736C49.5026 52.7609 49.8854 52.2246 50.1087 51.6194L52.5516 51.2198C52.9632 51.1529 53.3391 50.9494 53.6163 50.6432C53.8936 50.3371 54.0555 49.9468 54.0751 49.5376L54.2584 49.4998C54.467 49.46 54.655 49.3502 54.7903 49.1893C54.9255 49.0284 54.9997 48.8264 55 48.6178V33.3173C55 33.1865 54.9709 33.0574 54.9149 32.9388C54.8588 32.8202 54.7772 32.715 54.6755 32.6305C54.5739 32.5461 54.4547 32.4844 54.3263 32.4497C54.198 32.415 54.0634 32.4083 53.9321 32.4298ZM45.947 35.561L53.1667 34.3802V35.2802L46.4943 36.5907L44.825 36.9174H44.1833C44.337 36.5636 44.5793 36.2538 44.8876 36.0167C45.196 35.7795 45.5604 35.6228 45.947 35.561ZM24.3558 30.4309C24.7455 30.2618 25.0768 29.9853 25.3095 29.6349C25.5422 29.2846 25.6663 28.8754 25.6667 28.4571V25.7021C27.4567 26.2553 29.3766 26.2553 31.1667 25.7021V28.4571C31.1674 28.8751 31.2917 29.2839 31.5243 29.6339C31.757 29.9839 32.0881 30.2601 32.4775 30.4291L31.3729 32.4172H25.4604L24.3558 30.4309ZM28.4167 24.317C26.4724 24.3148 24.6084 23.5555 23.2336 22.2057C21.8588 20.8558 21.0855 19.0257 21.0833 17.1167V13.0873C22.734 11.9163 24.0909 10.3911 25.0507 8.62764C28.155 11.0682 31.834 12.7038 35.75 13.3843V17.1167C35.7478 19.0257 34.9745 20.8558 33.5997 22.2057C32.2249 23.5555 30.3609 24.3148 28.4167 24.317ZM40.8219 32.0095C41.2371 32.4196 41.5608 32.91 41.7725 33.4496L42.1758 34.4495C41.6817 34.1127 41.1185 33.8861 40.5258 33.7853L33.3557 32.6152L34.4612 30.6172H37.5192C38.1371 30.6172 38.7485 30.7406 39.3163 30.98C39.8841 31.2193 40.3964 31.5696 40.8219 32.0095ZM41.3417 36.9174L39.6733 36.5898L33 35.2793V34.3793L40.2206 35.5601C40.6071 35.6221 40.9714 35.779 41.2796 36.0163C41.5878 36.2536 41.8299 36.5636 41.9833 36.9174H41.3417ZM3.83168 36.4422L2.34027 35.7095C2.18803 35.6348 2.05997 35.52 1.97044 35.3779C1.88091 35.2358 1.83344 35.072 1.83335 34.9049V32.3641C1.83338 32.3335 1.8414 32.3033 1.85664 32.2765C1.87188 32.2497 1.89384 32.2272 1.92043 32.2111C1.94944 32.1936 1.98265 32.184 2.01668 32.1832C2.0455 32.1834 2.07384 32.1905 2.09918 32.2039L3.01585 32.6539C3.90646 33.0891 4.88749 33.3161 5.88226 33.3173H9.16668C9.32295 33.3173 9.47664 33.2782 9.61316 33.2035C9.74968 33.1289 9.8645 33.0212 9.9467 32.8907C10.0289 32.7602 10.0758 32.6112 10.0828 32.458C10.0899 32.3047 10.0569 32.1522 9.9871 32.0149L9.14743 30.367C9.09703 30.2646 9.06803 30.1534 9.06215 30.0399C9.05628 29.9263 9.07364 29.8128 9.11321 29.706C9.15279 29.5991 9.21377 29.5012 9.29256 29.4179C9.37135 29.3346 9.46635 29.2677 9.57194 29.221C9.67753 29.1744 9.79157 29.149 9.90732 29.1464C10.0231 29.1438 10.1382 29.164 10.2458 29.2058C10.3535 29.2476 10.4515 29.3101 10.5342 29.3898C10.6168 29.4694 10.6823 29.5645 10.7268 29.6694L11.9167 32.59V36.9174H5.88226C5.17055 36.9164 4.46872 36.7538 3.83168 36.4422ZM11.9167 38.7174V40.5175H8.25001V38.7174H11.9167ZM7.58635 49.9255L8.18218 42.3176H11.9167V50.0893C11.9157 50.6537 11.6869 51.1947 11.2803 51.5937C10.8738 51.9927 10.3227 52.2172 9.74785 52.2179C9.44909 52.2179 9.15356 52.1573 8.8798 52.0398C8.60604 51.9224 8.35996 51.7506 8.157 51.5354C7.95404 51.3201 7.79858 51.066 7.70038 50.789C7.60218 50.512 7.56336 50.218 7.58635 49.9255ZM16.0958 29.6748L15.9903 28.746C15.737 26.523 16.0766 24.2734 16.9758 22.2181C17.7789 20.3851 18.191 18.4101 18.1867 16.4147C18.1867 16.169 18.1775 15.9233 18.1674 15.6695L18.0107 12.5545C17.9417 11.1914 18.1512 9.82861 18.6268 8.54624C19.1023 7.26388 19.8344 6.08789 20.7798 5.0875C21.7252 4.0871 22.8649 3.28252 24.1318 2.72113C25.3987 2.15973 26.7672 1.85285 28.1567 1.81857C29.5462 1.78428 30.9287 2.02328 32.2227 2.52149C33.5167 3.0197 34.6962 3.76706 35.6916 4.71957C36.687 5.67207 37.4783 6.81048 38.0188 8.06777C38.5594 9.32506 38.8383 10.6758 38.8392 12.0405C38.8392 12.1972 38.8309 12.3619 38.8218 12.5554L38.6668 15.6677C38.5528 17.9099 38.9603 20.1482 39.8585 22.2127C40.5642 23.8211 40.9291 25.5537 40.931 27.3051C40.9278 27.7862 40.899 28.2669 40.8448 28.7451L40.7403 29.6757C39.7627 29.1153 38.6513 28.8191 37.5192 28.8171H33.3667C33.2699 28.8157 33.1774 28.7773 33.109 28.7101C33.0405 28.6429 33.0014 28.5521 33 28.4571V24.8993C34.3917 24.1103 35.5478 22.976 36.3522 21.6101C37.1566 20.2442 37.5812 18.6946 37.5833 17.1167V12.6166C37.5833 12.3999 37.5037 12.1904 37.359 12.0267C37.2144 11.863 37.0144 11.7561 36.7959 11.7255C32.7697 11.1625 28.9823 9.51088 25.8573 6.95538L25.3376 6.52877C25.2314 6.44164 25.1065 6.37926 24.9722 6.3463C24.8379 6.31334 24.6978 6.31066 24.5623 6.33845C24.4269 6.36625 24.2996 6.42381 24.19 6.5068C24.0804 6.5898 23.9914 6.69608 23.9296 6.81768L23.5748 7.5152C22.6767 9.27662 21.3267 10.778 19.6579 11.8713C19.5329 11.9532 19.4304 12.064 19.3592 12.194C19.2881 12.3239 19.2506 12.469 19.25 12.6166V17.1167C19.2521 18.6946 19.6767 20.2442 20.4811 21.6101C21.2856 22.976 22.4416 24.1103 23.8333 24.8993V28.4571C23.8319 28.5521 23.7928 28.6429 23.7244 28.7101C23.6559 28.7773 23.5635 28.8157 23.4667 28.8171H19.305C18.1777 28.8219 17.0712 29.1164 16.0958 29.6712V29.6748ZM28.4167 37.7382L26.4605 34.2173H30.3728L28.4167 37.7382ZM33 37.1154L40.3333 38.5554V49.3198L33 47.8797V37.1154ZM42.1667 38.7174H44V49.5178H42.1667V38.7174ZM46.9333 52.1963C46.5608 52.2628 46.1764 52.2129 45.8344 52.0535C45.4923 51.8941 45.2098 51.6334 45.0267 51.308C45.0514 51.308 45.0762 51.308 45.1009 51.2999L47.0012 50.9272C47.1978 51.2889 47.5211 51.5683 47.9114 51.7139C47.6403 51.965 47.3003 52.1326 46.9333 52.1963ZM52.25 49.444L48.5833 50.0443V46.6989C48.5825 46.6342 48.6053 46.5713 48.6477 46.5218C48.6901 46.4722 48.7493 46.4393 48.8143 46.4289L51.931 45.9195C51.9469 45.9182 51.9628 45.9182 51.9787 45.9195C52.0516 45.9195 52.1216 45.9479 52.1731 45.9986C52.2247 46.0492 52.2537 46.1179 52.2537 46.1895V49.444L52.404 50.3314L52.25 49.444ZM51.6267 44.1455L48.51 44.6558C48.0173 44.7356 47.5696 44.985 47.2471 45.3594C46.9246 45.7337 46.7484 46.2086 46.75 46.6989V49.1407L45.8333 49.3207V38.5554L53.1667 37.1154V44.4956C52.7199 44.1852 52.1669 44.0595 51.6267 44.1455Z" fill="#2DADFF"/>
</svg>
