<svg xmlns="http://www.w3.org/2000/svg" width="56" height="57" viewBox="0 0 56 57">
  <defs>
    <style>
      .cls-1 {
        fill-rule: evenodd;
      }
    </style>
  </defs>
  <path id="ICON" class="cls-1" d="M420.765,963.049l1.008,1.574a11.344,11.344,0,0,1,12.058,0l1.008-1.574A13.036,13.036,0,0,0,420.765,963.049ZM416.6,974.071h-1.867a13.014,13.014,0,0,0,1.007,5.036l1.723-.721A11.136,11.136,0,0,1,416.6,974.071Zm15.506,10.353a11.082,11.082,0,0,1-4.3.863v1.869a12.937,12.937,0,0,0,5.027-1.007Zm6.9-10.353a11.138,11.138,0,0,1-.862,4.312l1.723,0.722a12.985,12.985,0,0,0,1.006-5.034h-1.867Zm-11.2-9.347a9.347,9.347,0,1,0,9.334,9.347A9.341,9.341,0,0,0,427.8,964.724Zm0,16.824a7.477,7.477,0,1,1,7.467-7.477A7.472,7.472,0,0,1,427.8,981.548Zm2.053-7.775-1.12-.374V971a1.4,1.4,0,0,1,.933,1.2h1.867a3.381,3.381,0,0,0-2.8-3.155v-0.583H426.87v0.583a3.381,3.381,0,0,0-2.8,3.155,2.347,2.347,0,0,0,1.68,2.168l1.12,0.374v2.4a1.4,1.4,0,0,1-.933-1.2H424.07a3.38,3.38,0,0,0,2.8,3.155v0.584h1.867V979.1a3.38,3.38,0,0,0,2.8-3.155A2.347,2.347,0,0,0,429.857,973.773Zm-2.987-1-0.532-.179a0.516,0.516,0,0,1-.4-0.4,1.4,1.4,0,0,1,.933-1.2v1.776Zm1.867,4.365v-1.776l0.532,0.18a0.515,0.515,0,0,1,.4.4A1.4,1.4,0,0,1,428.737,977.141Zm24,22.439-3.074-3.077,3.074-3.078a0.937,0.937,0,0,0,0-1.322L440.6,979.953a0.932,0.932,0,0,0-1.32,0L427.337,991.91l-12.875-12.892a0.932,0.932,0,0,0-1.32,0l-12.135,12.15a0.937,0.937,0,0,0,0,1.322l6.808,6.816H397v1.874h12.135a0.932,0.932,0,0,0,.367-0.08l6.358-2.728h13.81v3.738H419.4a0.933,0.933,0,0,0-.392,1.78l12.135,5.61a0.947,0.947,0,0,0,.934-0.09l16.166-11.683,2.458,2.463-18.579,15.94h-5.088l-17.579-6.48a0.9,0.9,0,0,0-.323-0.06H397v1.87h11.968l17.579,6.48a0.894,0.894,0,0,0,.323.06h5.6a0.908,0.908,0,0,0,.606-0.23l19.6-16.82a0.935,0.935,0,0,0,.1-1.317C452.766,999.615,452.75,999.6,452.733,999.58ZM415.669,996.5a0.911,0.911,0,0,0-.368.075l-0.227.094a4.638,4.638,0,0,1,8.592-.169h-8Zm9.992,0a6.506,6.506,0,0,0-6.258-4.674,6.58,6.58,0,0,0-6.487,5.773L410,998.852l-7.014-7.023L413.8,981l15.482,15.5h-3.623Zm5.773,11.077-7.782-3.6H430.6a0.936,0.936,0,0,0,.933-0.94v-4.281l5.069,5.071Zm0.191-11.376a4.191,4.191,0,1,1,4.878,4.886Zm6.393,6.4a6.075,6.075,0,0,0,1.069-.56l-0.949.68Zm9.715-6.812-8.225,5.952a6.074,6.074,0,1,0-9.4-7.052l-1.453-1.457,11.281-11.3,10.815,10.829Z" transform="translate(-397 -961)"/>
</svg>
