<svg xmlns="http://www.w3.org/2000/svg" width="55.969" height="55.97" viewBox="0 0 55.969 55.97">
  <defs>
    <style>
      .cls-1 {
        fill-rule: evenodd;
      }
    </style>
  </defs>
  <path id="ICON" class="cls-1" d="M906.016,961a27.986,27.986,0,0,0-25.732,16.966l-0.348.115,0.135,0.406A27.985,27.985,0,1,0,906.016,961Zm21.952,42.088-1.437-1.44v-3.344a0.942,0.942,0,0,0-.094-0.417l-3.638-7.264v-3.51a0.933,0.933,0,0,0-.415-0.776l-2.8-1.866a0.932,0.932,0,0,0-.746-0.128l-3.427.856-5.757-2.47-0.792-5.547,2.195-2.194h4.712l1.586,2.383a0.93,0.93,0,0,0,.623.4l5.6,0.933a0.933,0.933,0,0,0,.448-0.035l5.155-1.718A26.022,26.022,0,0,1,927.968,1003.09Zm-3.848-32.9L922.6,971.2l-4.229-.846-2.743-.913a0.915,0.915,0,0,0-.521-0.02l-3.468.866-1.521-.506,1.127-2.253H914.4a0.94,0.94,0,0,0,.417-0.1l3.228-1.614A26.219,26.219,0,0,1,924.12,970.191Zm-28.33-5.242,2.239,1.492a0.927,0.927,0,0,0,.364.144l4.521,0.754-0.441,1.319-2.356.786a0.93,0.93,0,0,0-.5.4l-2.68,4.464-4.3,2.581-6.343.906a0.933,0.933,0,0,0-.8.922v2.8a0.931,0.931,0,0,0,.274.659l1.592,1.592v1.6l-3.881-2.587-1.407-4.221A26.267,26.267,0,0,1,895.79,964.949Zm-2.656,30.578-4.217-.844-1.567-3.125v-2.192l3.476-3.475,1.286,2.573a0.935,0.935,0,0,0,.835.516h6l2.527,4.211a0.936,0.936,0,0,0,.8.452h2.593l-0.653,3.271-3.532,3.526a0.961,0.961,0,0,0-.274.66v2.34l-3.358,2.51a0.95,0.95,0,0,0-.373.75v3.37l-1.161-.39-1.638-4.09v-9.149A0.933,0.933,0,0,0,893.134,995.527Zm-2.8,14.333a26.093,26.093,0,0,1-9.3-28.5l0.775,2.324a0.936,0.936,0,0,0,.367.481l4.65,3.1-1.06,1.062a0.933,0.933,0,0,0-.274.659v2.8a0.946,0.946,0,0,0,.1.417l1.866,3.73a0.931,0.931,0,0,0,.653.5l3.918,0.783v8.565a0.9,0.9,0,0,0,.066.34l1.866,4.67a0.914,0.914,0,0,0,.572.53l2.8,0.94a0.961,0.961,0,0,0,.291.05,0.935,0.935,0,0,0,.932-0.94v-4.19l3.359-2.52a0.936,0.936,0,0,0,.373-0.75v-2.41l3.458-3.457a0.932,0.932,0,0,0,.255-0.477l0.933-4.663a0.932,0.932,0,0,0-.915-1.115h-3.2l-2.527-4.211a0.932,0.932,0,0,0-.8-0.452h-5.953l-1.6-3.215a0.931,0.931,0,0,0-.686-0.5,0.913,0.913,0,0,0-.808.262l-1.211,1.206v-1.48a0.933,0.933,0,0,0-.274-0.659l-1.592-1.592v-1.6l5.73-.818a0.943,0.943,0,0,0,.348-0.124l4.664-2.8a0.928,0.928,0,0,0,.319-0.319l2.621-4.368,2.472-.824a0.92,0.92,0,0,0,.589-0.589l0.933-2.8a0.938,0.938,0,0,0-.731-1.213l-5.4-.9-0.948-.632a26.052,26.052,0,0,1,17.94.667l-1.7.851h-3.511a0.93,0.93,0,0,0-.84.515l-1.866,3.731a0.932,0.932,0,0,0,.419,1.25,0.872,0.872,0,0,0,.122.051l2.8,0.932a0.924,0.924,0,0,0,.521.021l3.468-.867,2.541,0.846a0.741,0.741,0,0,0,.112.03l4.665,0.933a0.927,0.927,0,0,0,.7-0.138l2.123-1.416a26.336,26.336,0,0,1,2.806,3.748l-4.589,1.53-4.97-.828-1.642-2.463a0.933,0.933,0,0,0-.771-0.415h-5.6a0.933,0.933,0,0,0-.66.274l-2.8,2.8a0.931,0.931,0,0,0-.264.792l0.932,6.529a0.933,0.933,0,0,0,.56.724l6.53,2.8a0.925,0.925,0,0,0,.594.048l3.331-.833,2.036,1.36v3.231a0.942,0.942,0,0,0,.094.417l3.638,7.264v3.514a0.955,0.955,0,0,0,.273.66l1.952,1.95A26.114,26.114,0,0,1,890.33,1009.86Z" transform="translate(-878.031 -961)"/>
</svg>
