<svg xmlns="http://www.w3.org/2000/svg" width="56" height="56" viewBox="0 0 56 56">
  <defs>
    <style>
      .cls-1 {
        fill-rule: evenodd;
      }
    </style>
  </defs>
  <path id="ICON" class="cls-1" d="M452.067,1190.4h-2.8v-17.73a0.933,0.933,0,0,0-1.7-.54L434.5,1190.8a0.935,0.935,0,0,0,.765,1.47H447.4v2.8a0.934,0.934,0,0,0,1.867,0v-2.8h2.8A0.935,0.935,0,0,0,452.067,1190.4Zm-4.667,0H437.059l10.341-14.77v14.77Zm-12.133,3.73h-11.05l10.273-12.09c0.023-.03.045-0.06,0.065-0.09a6.5,6.5,0,0,0-1.465-8.82,7.468,7.468,0,0,0-11.823,6.07,0.933,0.933,0,0,0,1.866,0,5.6,5.6,0,0,1,8.867-4.55,4.608,4.608,0,0,1,1.027,6.22l-11.538,13.59a0.934,0.934,0,0,0,.711,1.54h13.067A0.935,0.935,0,0,0,435.267,1194.13Zm-13.046-4.65a0.931,0.931,0,0,0-.9-0.96h0a23.315,23.315,0,0,1-22.424-22.39h3.7a0.93,0.93,0,1,0,0-1.86h-3.7a23.279,23.279,0,0,1,22.368-22.37v2.77a0.933,0.933,0,0,0,1.866,0v-2.77a23.3,23.3,0,0,1,22.356,21.93l-3.641-3.64a0.941,0.941,0,0,0-1.319.03,0.924,0.924,0,0,0,0,1.29l5.21,5.21a0.937,0.937,0,0,0,.367.27l0.111,0.03a1.335,1.335,0,0,0,.2.05h0.053a0.775,0.775,0,0,0,.21-0.05,0.44,0.44,0,0,0,.113-0.02,0.787,0.787,0,0,0,.337-0.21l5.281-5.28a0.934,0.934,0,0,0-1.32-1.32l-3.73,3.73a25.162,25.162,0,0,0-25.093-23.91c-0.023,0-.043-0.01-0.066-0.01s-0.043.01-.066,0.01a25.159,25.159,0,0,0-25.121,25.12c0,0.03-.013.05-0.013,0.07s0.012,0.04.013,0.07a25.172,25.172,0,0,0,24.241,25.11h0.034A0.93,0.93,0,0,0,422.221,1189.48Zm12.518-36.82a0.94,0.94,0,0,0-1.319,0l-10.03,10.03a2.907,2.907,0,0,0-2.381,0l-4.749-4.75a0.933,0.933,0,0,0-1.32,1.32l4.74,4.74a2.795,2.795,0,0,0,4.5,3.18,2.767,2.767,0,0,0,.539-3.18l10.02-10.02A0.932,0.932,0,0,0,434.739,1152.66Zm-11.879,13.2h0a0.961,0.961,0,0,1-1.32,0A0.933,0.933,0,1,1,422.86,1165.86Z" transform="translate(-397 -1140)"/>
</svg>
