<svg xmlns="http://www.w3.org/2000/svg" width="43" height="56" viewBox="0 0 43 56">
  <defs>
    <style>
      .cls-1 {
        fill-rule: evenodd;
      }
    </style>
  </defs>
  <path id="ICON" class="cls-1" d="M927.065,1140h-41.13a0.934,0.934,0,0,0-.935.93v50.4a0.937,0.937,0,0,0,.935.94h2.8v2.8a0.935,0.935,0,0,0,.935.93h4.674a0.935,0.935,0,0,0,.935-0.93v-2.8h22.434v2.8a0.935,0.935,0,0,0,.935.93h4.674a0.935,0.935,0,0,0,.935-0.93v-2.8h2.8a0.937,0.937,0,0,0,.935-0.94v-50.4A0.935,0.935,0,0,0,927.065,1140Zm-33.652,54.13h-2.8v-1.86h2.8v1.86Zm28.978,0h-2.8v-1.86h2.8v1.86Zm3.739-3.73H886.869v-48.53H926.13v48.53Zm-4.674-45.73H891.543a0.928,0.928,0,0,0-.934.93v6.53h-0.935a0.937,0.937,0,0,0-.935.94v4.66a0.937,0.937,0,0,0,.935.94h0.935v13.06h-0.935a0.937,0.937,0,0,0-.935.94v4.66a0.937,0.937,0,0,0,.935.94h0.935v8.4a0.934,0.934,0,0,0,.934.93h29.913a0.934,0.934,0,0,0,.935-0.93V1145.6A0.928,0.928,0,0,0,921.456,1144.67ZM890.609,1154h1.869v2.8h-1.869V1154Zm0,22.4v-2.8h1.869v2.8h-1.869Zm29.913,9.33H892.478v-7.46h0.935a0.937,0.937,0,0,0,.935-0.94v-4.66a0.937,0.937,0,0,0-.935-0.94h-0.935v-13.06h0.935a0.937,0.937,0,0,0,.935-0.94v-4.66a0.937,0.937,0,0,0-.935-0.94h-0.935v-5.6h28.044v39.2ZM906.5,1155.87a10.265,10.265,0,1,0,10.283,10.26A10.269,10.269,0,0,0,906.5,1155.87Zm0,18.66a8.4,8.4,0,1,1,8.413-8.4A8.406,8.406,0,0,1,906.5,1174.53Zm4.837-6.18a2.528,2.528,0,0,0-.512-1.66,2.994,2.994,0,0,0-1.24-.92,15,15,0,0,0-1.9-.59,10.534,10.534,0,0,1-1.4-.4,2.264,2.264,0,0,1-.856-0.52,1.119,1.119,0,0,1-.336-0.85,1.412,1.412,0,0,1,.584-1.2,2.578,2.578,0,0,1,1.576-.43,5.107,5.107,0,0,1,3.184,1.16l0.688-1.48a4.729,4.729,0,0,0-1.368-.84,6.726,6.726,0,0,0-1.736-.44v-1.75h-1.632v1.76a4.277,4.277,0,0,0-2.424,1.14,2.955,2.955,0,0,0-.936,2.19,2.628,2.628,0,0,0,.544,1.74,3.382,3.382,0,0,0,1.3.96,15.256,15.256,0,0,0,1.968.61q0.864,0.225,1.336.39a2.541,2.541,0,0,1,.792.46,0.957,0.957,0,0,1,.32.75,1.39,1.39,0,0,1-.584,1.2,2.838,2.838,0,0,1-1.672.42,5.616,5.616,0,0,1-1.816-.29,5.923,5.923,0,0,1-1.656-.9l-0.688,1.49a5.566,5.566,0,0,0,1.576.9,7.2,7.2,0,0,0,1.976.41v1.73h1.632v-1.76a4.175,4.175,0,0,0,2.384-1.11,2.944,2.944,0,0,0,.9-2.17h0Z" transform="translate(-885 -1140)"/>
</svg>
